<?xml version="1.0" encoding="UTF-8"?>
<svg id="Camada_2" data-name="Camada 2" xmlns="http://www.w3.org/2000/svg" xmlns:xlink="http://www.w3.org/1999/xlink" viewBox="0 0 764.59 423.85">
  <defs>
    <style>
      .cls-1 {
        fill: red;
      }

      .cls-2 {
        fill: url(#Gradiente_sem_nome_30);
      }
    </style>
    <linearGradient id="Gradiente_sem_nome_30" data-name="Gradiente sem nome 30" x1="0" y1="161.39" x2="764.59" y2="161.39" gradientUnits="userSpaceOnUse">
      <stop offset=".5" stop-color="#fdc600"/>
      <stop offset=".52" stop-color="#fa9c06"/>
      <stop offset=".56" stop-color="#f54713"/>
      <stop offset=".58" stop-color="#f42619"/>
    </linearGradient>
  </defs>
  <g id="Camada_1-2" data-name="Camada 1">
    <g>
      <g>
        <path class="cls-1" d="M117.96,296.09h29.29v1.54h-27.75v23.12h21.58v1.54h-21.58v23.12h27.75v1.54h-29.29v-50.87Z"/>
        <path class="cls-1" d="M186.46,343.81c-3.33,3.21-7.42,4.97-12.27,5.3-.58,.04-1.15,.06-1.73,.06-5.63,0-10.52-1.64-14.67-4.93-2.38-2.18-4.15-4.36-5.3-6.54l1.42-.68c1.03,2.01,2.67,4.03,4.93,6.04,3.82,3.04,8.32,4.56,13.5,4.56,.58,0,1.15-.02,1.73-.06,4.44-.29,8.2-1.91,11.28-4.87,1.44-1.31,2.42-2.96,2.96-4.93,.29-.99,.43-1.97,.43-2.96,0-1.81-.49-3.58-1.48-5.3-1.52-2.55-3.72-4.19-6.6-4.93l-14.86-4.01c-3.7-.99-6.5-2.94-8.39-5.86-1.27-1.93-1.91-4.03-1.91-6.29,0-1.15,.16-2.36,.49-3.64,.99-3.7,3.12-6.51,6.41-8.45,2.18-1.23,4.42-1.93,6.72-2.1,.78-.08,1.56-.12,2.34-.12,3.78,0,7.4,.9,10.85,2.71,2.22,1.32,4.29,3.08,6.23,5.3l-1.29,.86c-1.77-2.05-3.68-3.66-5.73-4.81-3.25-1.68-6.6-2.53-10.05-2.53-.74,0-1.5,.04-2.28,.12-2.06,.17-4.05,.8-5.98,1.91-2.96,1.73-4.87,4.23-5.73,7.52-.33,1.15-.49,2.24-.49,3.27,0,1.97,.58,3.78,1.73,5.43,1.69,2.55,4.17,4.28,7.46,5.18l14.92,3.95c3.29,.9,5.8,2.82,7.52,5.73,1.11,1.93,1.66,3.95,1.66,6.04,0,1.07-.16,2.18-.49,3.33-.58,2.3-1.66,4.21-3.27,5.73l-.06-.06Z"/>
        <path class="cls-1" d="M242.63,340.6c-5.26,5.26-11.61,7.89-19.05,7.89s-13.85-2.63-19.11-7.89c-5.26-5.26-7.89-11.63-7.89-19.11s2.63-13.79,7.89-19.05,11.63-7.89,19.11-7.89,13.79,2.63,19.05,7.89l-1.11,1.11c-4.97-4.97-10.96-7.46-17.94-7.46s-13.03,2.49-18,7.46c-4.97,4.97-7.46,10.96-7.46,17.94s2.49,13.03,7.46,18c4.97,4.97,10.98,7.46,18,7.46s12.97-2.49,17.94-7.46l1.11,1.11Z"/>
        <path class="cls-1" d="M291.96,302.44c5.26,5.26,7.89,11.61,7.89,19.05s-2.63,13.85-7.89,19.11c-5.26,5.26-11.61,7.89-19.05,7.89s-13.85-2.63-19.11-7.89c-5.26-5.26-7.89-11.63-7.89-19.11s2.63-13.79,7.89-19.05c5.26-5.26,11.63-7.89,19.11-7.89s13.79,2.63,19.05,7.89Zm-19.05-6.35c-7.03,0-13.03,2.49-18,7.46s-7.46,10.96-7.46,17.94,2.49,13.03,7.46,18c4.97,4.97,10.98,7.46,18,7.46s12.97-2.49,17.94-7.46c4.97-4.97,7.46-10.98,7.46-18s-2.49-12.97-7.46-17.94c-4.97-4.97-10.96-7.46-17.94-7.46Z"/>
        <path class="cls-1" d="M309.1,296.09h1.54v49.33h27.75v1.54h-29.29v-50.87Z"/>
        <path class="cls-1" d="M362.31,296.09l23.74,50.87h-1.73l-3.88-8.32h-38.23l-3.88,8.32h-1.73l23.74-50.87h1.97Zm17.39,41l-18.37-39.4-18.37,39.4h36.75Z"/>
        <path class="cls-1" d="M429.95,346.96l-18.5-50.87h1.66l17.88,49.08,17.82-49.08h1.66l-18.5,50.87h-2.03Z"/>
        <path class="cls-1" d="M457.7,296.09v50.87h-1.54v-50.87h1.54Z"/>
        <path class="cls-1" d="M470.03,296.09h18.5c5.1,0,9.45,1.81,13.07,5.43,3.62,3.62,5.43,7.98,5.43,13.07s-1.81,9.46-5.43,13.07c-1.69,1.69-3.54,2.98-5.55,3.88l8.88,15.42h-1.85l-8.51-14.8c-1.89,.62-3.91,.93-6.04,.93h-16.96v13.87h-1.54v-50.87Zm1.54,1.54v33.91h16.96c4.69,0,8.68-1.65,11.99-4.96,3.31-3.31,4.96-7.31,4.96-11.99s-1.66-8.68-4.96-11.99c-3.31-3.31-7.31-4.96-11.99-4.96h-16.96Z"/>
        <path class="cls-1" d="M560.8,340.6c-5.26,5.26-11.61,7.89-19.05,7.89s-13.85-2.63-19.11-7.89c-5.26-5.26-7.89-11.63-7.89-19.11s2.63-13.79,7.89-19.05c5.26-5.26,11.63-7.89,19.11-7.89s13.79,2.63,19.05,7.89l-1.11,1.11c-4.97-4.97-10.96-7.46-17.94-7.46s-13.03,2.49-18,7.46c-4.97,4.97-7.46,10.96-7.46,17.94s2.49,13.03,7.46,18c4.97,4.97,10.98,7.46,18,7.46s12.62-2.34,17.51-7.03v-17.63h-18.5v-1.54h20.04v19.85Z"/>
        <path class="cls-1" d="M571.77,296.09h29.29v1.54h-27.75v23.12h21.58v1.54h-21.58v23.12h27.75v1.54h-29.29v-50.87Z"/>
        <path class="cls-1" d="M611.85,298.18v48.77h-1.54v-50.87h1.97l23.68,32.62,23.68-32.62h1.97v50.87h-1.54v-48.77l-23.06,31.82h-2.1l-23.06-31.82Z"/>
        <path class="cls-1" d="M116.78,359.66h24.15c8.5,0,15.73,3.01,21.69,9.02,6.01,6.01,9.02,13.27,9.02,21.77s-3.01,15.68-9.02,21.69c-5.96,6.01-13.17,9.02-21.62,9.02v.07h-24.23v-61.58Zm1.86,1.86v57.85h22.29v-.07c8,0,14.81-2.83,20.43-8.5,5.62-5.62,8.42-12.4,8.42-20.35s-2.81-14.84-8.42-20.5c-5.62-5.62-12.43-8.42-20.43-8.42h-22.29Z"/>
        <path class="cls-1" d="M235.83,367.34c6.36,6.36,9.54,14.04,9.54,23.04s-3.18,16.75-9.54,23.11c-6.36,6.36-14.04,9.54-23.04,9.54s-16.75-3.18-23.11-9.54c-6.36-6.36-9.54-14.06-9.54-23.11s3.18-16.67,9.54-23.04c6.36-6.36,14.06-9.54,23.11-9.54s16.67,3.18,23.04,9.54Zm-23.04-7.68c-8.5,0-15.76,3.01-21.77,9.02-6.01,6.01-9.02,13.25-9.02,21.69s3.01,15.76,9.02,21.77c6.01,6.01,13.27,9.02,21.77,9.02s15.68-3.01,21.69-9.02c6.01-6.01,9.02-13.27,9.02-21.77s-3.01-15.68-9.02-21.69c-6.01-6.01-13.25-9.02-21.69-9.02Z"/>
        <path class="cls-1" d="M292.79,417.36c-4.03,3.88-8.97,6.01-14.84,6.41-.7,.05-1.39,.07-2.09,.07-6.81,0-12.72-1.99-17.74-5.96-2.88-2.63-5.02-5.27-6.41-7.9l1.71-.82c1.24,2.44,3.23,4.87,5.96,7.31,4.62,3.68,10.06,5.52,16.33,5.52,.7,0,1.39-.03,2.09-.07,5.37-.35,9.92-2.31,13.64-5.89,1.74-1.59,2.93-3.58,3.58-5.96,.35-1.19,.52-2.39,.52-3.58,0-2.19-.6-4.32-1.79-6.41-1.84-3.08-4.5-5.07-7.98-5.96l-17.97-4.85c-4.47-1.19-7.85-3.55-10.14-7.08-1.54-2.34-2.31-4.87-2.31-7.6,0-1.39,.2-2.86,.6-4.4,1.19-4.47,3.78-7.88,7.75-10.21,2.63-1.49,5.34-2.34,8.13-2.53,.94-.1,1.89-.15,2.83-.15,4.57,0,8.95,1.09,13.12,3.28,2.68,1.59,5.19,3.73,7.53,6.41l-1.57,1.04c-2.14-2.48-4.45-4.42-6.93-5.81-3.93-2.04-7.98-3.06-12.15-3.06-.89,0-1.81,.05-2.76,.15-2.49,.2-4.9,.97-7.23,2.31-3.58,2.09-5.89,5.12-6.93,9.09-.4,1.39-.6,2.71-.6,3.95,0,2.39,.7,4.57,2.09,6.56,2.04,3.08,5.04,5.17,9.02,6.26l18.04,4.77c3.98,1.09,7.01,3.4,9.09,6.93,1.34,2.34,2.01,4.77,2.01,7.31,0,1.29-.2,2.63-.6,4.03-.7,2.78-2.01,5.1-3.95,6.93l-.07-.07Z"/>
        <path class="cls-1" d="M338.56,359.66h20.5c6.16,0,11.43,2.19,15.8,6.56,4.37,4.37,6.56,9.64,6.56,15.8s-2.19,11.43-6.56,15.8c-4.37,4.37-9.64,6.56-15.8,6.56h-18.64v16.77h-1.86v-61.5Zm1.86,1.86v41h18.64c5.67,0,10.5-2,14.5-6,4-4,6-8.83,6-14.5s-2-10.5-6-14.5c-4-4-8.83-6-14.5-6h-18.64Z"/>
        <path class="cls-1" d="M444.57,367.34c6.36,6.36,9.54,14.04,9.54,23.04s-3.18,16.75-9.54,23.11c-6.36,6.36-14.04,9.54-23.04,9.54s-16.75-3.18-23.11-9.54c-6.36-6.36-9.54-14.06-9.54-23.11s3.18-16.67,9.54-23.04c6.36-6.36,14.06-9.54,23.11-9.54s16.67,3.18,23.04,9.54Zm-23.04-7.68c-8.5,0-15.76,3.01-21.77,9.02-6.01,6.01-9.02,13.25-9.02,21.69s3.01,15.76,9.02,21.77c6.01,6.01,13.27,9.02,21.77,9.02s15.68-3.01,21.69-9.02c6.01-6.01,9.02-13.27,9.02-21.77s-3.01-15.68-9.02-21.69c-6.01-6.01-13.25-9.02-21.69-9.02Z"/>
        <path class="cls-1" d="M465.29,359.66h26.09c4.37,0,8.1,1.54,11.18,4.62,3.08,3.08,4.62,6.81,4.62,11.18s-1.54,8.18-4.62,11.26c-1.49,1.49-3.11,2.61-4.85,3.35,2.48,.7,4.72,2.04,6.71,4.03,3.08,3.08,4.62,6.81,4.62,11.18s-1.54,8.18-4.62,11.26-6.81,4.62-11.18,4.62h-27.96v-61.5Zm1.86,1.86v27.96h24.23c3.83,0,7.11-1.37,9.84-4.1,2.73-2.73,4.1-6.04,4.1-9.92s-1.37-7.11-4.1-9.84c-2.73-2.73-6.01-4.1-9.84-4.1h-24.23Zm0,29.82v27.96h26.09c3.83,0,7.11-1.37,9.84-4.1,2.73-2.73,4.1-6.04,4.1-9.92s-1.37-7.11-4.1-9.84c-2.73-2.73-6.01-4.1-9.84-4.1h-26.09Z"/>
        <path class="cls-1" d="M521.2,359.66h22.36c6.16,0,11.43,2.19,15.8,6.56,4.37,4.37,6.56,9.64,6.56,15.8s-2.19,11.43-6.56,15.8c-2.04,2.04-4.27,3.6-6.71,4.7l10.74,18.64h-2.24l-10.29-17.89c-2.29,.75-4.72,1.12-7.31,1.12h-20.5v16.77h-1.86v-61.5Zm1.86,1.86v41h20.5c5.67,0,10.5-2,14.5-6,4-4,6-8.83,6-14.5s-2-10.5-6-14.5c-4-4-8.83-6-14.5-6h-20.5Z"/>
        <path class="cls-1" d="M578.98,359.66h35.41v1.86h-33.55v27.96h26.09v1.86h-26.09v27.96h33.55v1.86h-35.41v-61.5Z"/>
        <path class="cls-1" d="M661.8,417.36c-4.03,3.88-8.97,6.01-14.84,6.41-.7,.05-1.39,.07-2.09,.07-6.81,0-12.72-1.99-17.74-5.96-2.88-2.63-5.02-5.27-6.41-7.9l1.71-.82c1.24,2.44,3.23,4.87,5.96,7.31,4.62,3.68,10.06,5.52,16.33,5.52,.7,0,1.39-.03,2.09-.07,5.37-.35,9.92-2.31,13.64-5.89,1.74-1.59,2.93-3.58,3.58-5.96,.35-1.19,.52-2.39,.52-3.58,0-2.19-.6-4.32-1.79-6.41-1.84-3.08-4.5-5.07-7.98-5.96l-17.97-4.85c-4.47-1.19-7.85-3.55-10.14-7.08-1.54-2.34-2.31-4.87-2.31-7.6,0-1.39,.2-2.86,.6-4.4,1.19-4.47,3.78-7.88,7.75-10.21,2.63-1.49,5.34-2.34,8.13-2.53,.94-.1,1.89-.15,2.83-.15,4.57,0,8.95,1.09,13.12,3.28,2.68,1.59,5.19,3.73,7.53,6.41l-1.57,1.04c-2.14-2.48-4.45-4.42-6.93-5.81-3.93-2.04-7.98-3.06-12.15-3.06-.89,0-1.81,.05-2.76,.15-2.49,.2-4.9,.97-7.23,2.31-3.58,2.09-5.89,5.12-6.93,9.09-.4,1.39-.6,2.71-.6,3.95,0,2.39,.7,4.57,2.09,6.56,2.04,3.08,5.04,5.17,9.02,6.26l18.04,4.77c3.98,1.09,7.01,3.4,9.09,6.93,1.34,2.34,2.01,4.77,2.01,7.31,0,1.29-.2,2.63-.6,4.03-.7,2.78-2.01,5.1-3.95,6.93l-.07-.07Z"/>
      </g>
      <g>
        <path class="cls-2" d="M.03,126.66c-4.16,1.29,374.5-162.25,764.56,126.25,0,0-320.47-306.52-764.56-126.25Z"/>
        <path class="cls-1" d="M593.63,197.13c-26.45,14.49-53.93,15.71-81.66,3.98-27.39-11.59-44.24-33.05-54.15-62.42l-10.23,25.14-11.54,28.38v80.56h19.5v-92.15c3.37,3.91,5.06,5.86,6.74,7.83,8.45,9.88,18.22,18.03,28.83,24.39,.27,.16,.54,.33,.82,.49,.58,.35,1.18,.68,1.77,1.03,16.56,9.58,35.74,15.09,56.22,15.09,35.25,0,66.73-16.25,87.44-41.71-6.31-3.51-12.65-6.94-19.02-10.27-6.9,7.74-15.18,14.44-24.72,19.66Z"/>
        <path class="cls-1" d="M662.88,115.81c0-30.85-12.23-58.8-32.06-79.28-20.52-21.19-49.17-34.37-80.89-34.37-8.7,0-17.15,1.02-25.28,2.89-1.83,.72-3.53,1.47-5.35,2.31l-5.39,13.25-3.28,8.07c58.96-16.3,104.36,2.04,124.38,50.23,10.35,24.92,9.14,52.15-1.45,75.25,6.33,3.63,12.41,7.23,18.24,10.79,7.1-14.88,11.08-31.55,11.08-49.15Z"/>
        <path class="cls-1" d="M388.55,203l-33.03-71.81-.3,1.16-7.12,27.85,27.99,68.91h24.22l51.53-115.64c-6.76-1.72-13.54-3.34-20.34-4.87l-42.95,94.4Z"/>
        <path class="cls-1" d="M502,.91h-21.5l-35.3,77.58c6.66,1.62,13.29,3.35,19.92,5.18L502,.91Z"/>
        <path class="cls-1" d="M117.76,136.7c7.9,48.37,50.86,87.05,97.72,91.24,53.71,4.81,100.62-23.47,119.14-71.89,1.24-3.25,2.07-6.66,3.14-10.17-.71-.07-1.36-.16-1.99-.27h-16.05c-.1,.2-.2,.38-.31,.59-18.63,35.35-65.24,67.66-104.12,61.78-46.2-6.99-80.62-47.9-79.71-94.74,.07-3.78,.36-7.5,.86-11.15-6.87,1.23-13.46,2.52-19.75,3.83-.47,8.75-.6,20.61,1.06,30.78Z"/>
        <path class="cls-1" d="M321.67,105.16h-12.91c-46.7,0-93.41,0-140.11,0-2.53,0-4.62,.03-6.33,.16v18.82h179.5c.24-3.66,.58-6.56,.6-9.47,.03-7.01-.62-13.93-1.88-20.68-6.98-.68-13.98-1.27-20.98-1.75,.92,3.83,1.29,7.86,2.12,12.92Z"/>
        <path class="cls-1" d="M220.6,21.22c32.24-3.88,64.32,11.87,83.59,38.27,8.14,.22,16.27,.59,24.41,1.11-14.67-26.89-39.95-47.75-70.59-55.78-4.69-1.23-9.34-2.61-14.02-3.92-22.94-2.04-19.75,0-29.62,0-5.94,1.61-11.97,2.91-17.79,4.87-38.2,12.85-63.21,37.63-75.15,74.17,7.72-1.93,15.45-3.73,23.19-5.39,13.61-28.65,41.47-49.18,75.99-53.33Z"/>
      </g>
    </g>
  </g>
</svg>